<?xml version="1.0" encoding="utf-8"?>
<svg fill="#000000" width="800px" height="800px" viewBox="0 -0.5 25 25" xmlns="http://www.w3.org/2000/svg" xmlns:bx="https://boxy-svg.com">
  <defs>
    <bx:guide x="12.327" y="8.305" angle="0"/>
    <bx:guide x="17.867" y="12.198" angle="90"/>
  </defs>
  <path d="M 12.301 0 L 12.394 0 C 14.636 0 16.734 0.613 18.531 1.68 L 18.476 1.649 C 20.347 2.743 21.862 4.258 22.925 6.071 L 22.956 6.129 C 23.996 7.898 24.61 10.025 24.61 12.295 C 24.61 17.701 21.127 22.295 16.283 23.953 L 16.196 23.979 C 16.133 23.999 16.061 24.01 15.987 24.01 C 15.825 24.01 15.675 23.956 15.554 23.866 L 15.556 23.867 C 15.428 23.752 15.348 23.586 15.348 23.401 C 15.348 23.396 15.348 23.392 15.348 23.388 C 15.348 23.356 15.351 22.947 15.356 22.162 C 15.361 21.377 15.364 20.659 15.364 20.008 C 15.371 19.933 15.375 19.847 15.375 19.759 C 15.375 18.967 15.052 18.251 14.531 17.734 C 15.149 17.673 15.707 17.571 16.249 17.429 L 16.173 17.446 C 16.746 17.286 17.246 17.073 17.71 16.804 L 17.679 16.821 C 18.187 16.541 18.617 16.185 18.971 15.763 L 18.977 15.756 C 19.349 15.28 19.64 14.72 19.817 14.111 L 19.826 14.076 C 20.035 13.393 20.155 12.608 20.155 11.795 C 20.155 11.75 20.155 11.705 20.154 11.66 C 20.154 11.64 20.155 11.617 20.155 11.594 C 20.155 10.346 19.673 9.211 18.886 8.364 L 18.889 8.367 C 19.057 7.927 19.154 7.419 19.154 6.888 C 19.154 6.239 19.009 5.625 18.75 5.074 L 18.761 5.1 C 18.646 5.078 18.515 5.065 18.38 5.065 C 18.048 5.065 17.734 5.142 17.456 5.279 C 16.891 5.488 16.407 5.725 15.951 6.002 L 15.989 5.98 L 15.38 6.364 C 14.458 6.1 13.399 5.948 12.305 5.948 C 11.239 5.948 10.207 6.092 9.226 6.362 C 9.056 6.245 8.83 6.101 8.548 5.931 C 8.175 5.717 7.734 5.51 7.276 5.336 L 7.21 5.314 C 6.917 5.16 6.57 5.07 6.201 5.07 C 6.077 5.07 5.955 5.08 5.837 5.1 L 5.85 5.098 C 5.602 5.622 5.457 6.237 5.457 6.886 C 5.457 7.406 5.55 7.906 5.721 8.367 C 4.936 9.211 4.456 10.346 4.456 11.593 C 4.456 11.617 4.456 11.643 4.457 11.667 C 4.456 11.705 4.456 11.75 4.456 11.795 C 4.456 12.604 4.576 13.386 4.8 14.122 L 4.785 14.065 C 4.974 14.708 5.261 15.267 5.635 15.758 L 5.626 15.745 C 5.98 16.18 6.408 16.538 6.893 16.807 L 6.915 16.818 C 7.347 17.07 7.848 17.283 8.375 17.432 L 8.421 17.443 C 8.887 17.568 9.445 17.67 10.016 17.727 L 10.062 17.731 C 9.631 18.159 9.344 18.731 9.278 19.369 L 9.277 19.381 C 9.07 19.482 8.829 19.564 8.578 19.617 L 8.557 19.621 C 8.301 19.672 8.008 19.701 7.707 19.701 C 7.686 19.701 7.665 19.701 7.644 19.701 C 7.25 19.693 6.888 19.565 6.589 19.353 L 6.595 19.357 C 6.224 19.098 5.924 18.762 5.714 18.371 L 5.707 18.356 C 5.509 18.02 5.248 17.742 4.939 17.529 L 4.93 17.523 C 4.705 17.354 4.44 17.222 4.154 17.143 L 4.138 17.139 L 3.818 17.091 C 3.795 17.089 3.768 17.088 3.741 17.088 C 3.603 17.088 3.472 17.115 3.353 17.163 C 3.269 17.211 3.242 17.272 3.274 17.346 C 3.313 17.432 3.361 17.506 3.419 17.571 L 3.418 17.57 C 3.479 17.642 3.548 17.705 3.623 17.76 L 3.626 17.762 L 3.738 17.842 C 4.021 17.99 4.254 18.196 4.431 18.445 L 4.435 18.451 C 4.626 18.688 4.794 18.956 4.929 19.243 L 4.939 19.267 L 5.099 19.635 C 5.234 20.037 5.479 20.373 5.799 20.616 L 5.804 20.62 C 6.104 20.854 6.466 21.022 6.861 21.098 L 6.877 21.1 C 7.207 21.164 7.591 21.204 7.983 21.212 L 7.99 21.212 C 8.035 21.214 8.087 21.214 8.14 21.214 C 8.401 21.214 8.657 21.193 8.907 21.152 L 8.88 21.156 L 9.248 21.092 C 9.248 21.498 9.251 21.971 9.256 22.51 C 9.261 23.049 9.264 23.34 9.264 23.383 L 9.264 23.397 C 9.264 23.582 9.184 23.748 9.056 23.863 L 9.055 23.863 C 8.936 23.952 8.787 24.006 8.624 24.006 C 8.549 24.006 8.477 23.995 8.41 23.974 L 8.415 23.975 C 3.486 22.286 0.006 17.692 0.006 12.285 C 0.006 10.017 0.618 7.892 1.687 6.066 L 1.655 6.124 C 2.749 4.253 4.264 2.738 6.077 1.675 L 6.135 1.644 C 7.874 0.61 9.97 -0.001 12.208 -0.001 L 12.301 -0.001 Z M 20.154 11.66 C 20.154 11.662 20.154 11.664 20.154 11.666 L 20.154 11.659 C 20.154 11.659 20.154 11.66 20.154 11.66 Z M 17.456 5.279 C 17.458 5.278 17.461 5.277 17.463 5.276 L 17.451 5.281 C 17.453 5.28 17.454 5.279 17.456 5.279 Z M 9.226 6.362 C 9.227 6.363 9.228 6.363 9.229 6.364 L 9.148 6.384 C 9.174 6.377 9.2 6.369 9.226 6.362 Z M 5.721 8.367 C 5.721 8.367 5.721 8.367 5.722 8.366 L 5.732 8.395 C 5.728 8.386 5.725 8.376 5.721 8.367 Z M 4.457 11.667 C 4.457 11.666 4.457 11.665 4.457 11.665 L 4.457 11.669 C 4.457 11.668 4.457 11.668 4.457 11.667 Z M 4.453 17.698 C 4.346 17.645 4.309 17.581 4.341 17.506 C 4.373 17.453 4.442 17.442 4.549 17.474 C 4.656 17.527 4.693 17.591 4.661 17.666 C 4.618 17.751 4.549 17.762 4.453 17.698 Z M 5.158 18.21 C 5.093 18.283 5.008 18.268 4.902 18.163 C 4.806 18.046 4.795 17.96 4.87 17.907 C 4.934 17.843 5.019 17.859 5.126 17.955 C 5.222 18.072 5.233 18.158 5.158 18.211 Z M 5.366 18.819 C 5.27 18.68 5.27 18.584 5.366 18.531 C 5.462 18.456 5.553 18.488 5.638 18.627 C 5.734 18.755 5.734 18.856 5.638 18.931 C 5.553 18.995 5.462 18.958 5.366 18.819 Z M 6.31 19.6 C 6.225 19.699 6.118 19.684 5.99 19.556 C 5.851 19.439 5.83 19.337 5.926 19.252 C 6.011 19.156 6.118 19.172 6.246 19.3 C 6.374 19.417 6.395 19.519 6.31 19.604 Z M 7.223 20.004 C 7.18 20.133 7.079 20.165 6.919 20.1 C 6.738 20.057 6.668 19.977 6.711 19.86 C 6.754 19.743 6.855 19.705 7.015 19.748 C 7.186 19.801 7.255 19.887 7.223 20.004 Z M 8.232 20.085 C 8.232 20.202 8.147 20.261 7.976 20.26 C 7.795 20.281 7.704 20.223 7.704 20.084 C 7.704 19.967 7.789 19.908 7.96 19.908 C 8.141 19.887 8.232 19.945 8.232 20.084 Z M 9.162 19.924 C 9.183 20.031 9.108 20.105 8.937 20.148 C 8.766 20.191 8.67 20.148 8.649 20.02 C 8.628 19.892 8.702 19.812 8.873 19.78 C 9.044 19.759 9.14 19.807 9.161 19.924 Z M 13.203 11.934 C 13.086 11.921 12.998 11.822 12.998 11.705 L 12.998 11.158 C 12.998 11.041 13.086 10.942 13.203 10.929 L 13.54 10.89 C 13.582 10.722 13.646 10.56 13.73 10.408 L 13.52 10.142 C 13.447 10.05 13.454 9.918 13.537 9.835 L 13.923 9.448 C 14.006 9.366 14.138 9.358 14.231 9.431 L 14.482 9.631 C 14.643 9.534 14.816 9.461 14.997 9.413 L 15.034 9.099 C 15.048 8.982 15.146 8.894 15.264 8.894 L 15.81 8.894 C 15.927 8.894 16.026 8.982 16.039 9.099 L 16.076 9.413 C 16.253 9.46 16.421 9.531 16.578 9.623 L 16.821 9.431 C 16.913 9.358 17.045 9.365 17.128 9.448 L 17.513 9.834 C 17.596 9.917 17.604 10.049 17.531 10.141 L 17.333 10.391 C 17.417 10.541 17.483 10.701 17.527 10.868 L 17.848 10.906 C 17.965 10.92 18.053 11.018 18.053 11.136 L 18.053 11.682 C 18.053 11.799 17.965 11.898 17.848 11.911 L 17.522 11.949 C 17.477 12.118 17.408 12.28 17.32 12.432 L 17.532 12.7 C 17.605 12.792 17.597 12.924 17.514 13.007 L 17.128 13.394 C 17.045 13.476 16.913 13.484 16.821 13.411 L 16.549 13.196 C 16.394 13.283 16.23 13.35 16.058 13.394 L 16.017 13.743 C 16.004 13.86 15.905 13.948 15.788 13.948 L 15.242 13.948 C 15.124 13.948 15.026 13.86 15.012 13.743 L 14.97 13.382 C 14.81 13.336 14.656 13.271 14.511 13.188 L 14.231 13.41 C 14.138 13.483 14.006 13.476 13.923 13.393 L 13.537 13.007 C 13.455 12.923 13.447 12.792 13.52 12.699 L 13.744 12.416 C 13.665 12.277 13.603 12.129 13.558 11.975 Z M 14.634 11.401 C 14.634 11.899 15.039 12.304 15.537 12.304 C 16.035 12.304 16.44 11.899 16.44 11.401 C 16.44 10.903 16.035 10.498 15.537 10.498 C 15.039 10.498 14.634 10.903 14.634 11.401 Z M 6.854 11.95 C 6.737 11.937 6.649 11.838 6.649 11.721 L 6.649 11.174 C 6.649 11.057 6.737 10.958 6.854 10.945 L 7.191 10.906 C 7.233 10.738 7.297 10.576 7.381 10.424 L 7.171 10.158 C 7.098 10.066 7.105 9.934 7.188 9.851 L 7.574 9.464 C 7.657 9.382 7.789 9.374 7.882 9.447 L 8.133 9.647 C 8.294 9.55 8.467 9.477 8.648 9.429 L 8.685 9.115 C 8.699 8.998 8.797 8.91 8.915 8.91 L 9.461 8.91 C 9.578 8.91 9.677 8.998 9.69 9.115 L 9.727 9.429 C 9.904 9.476 10.072 9.547 10.229 9.639 L 10.472 9.447 C 10.564 9.374 10.696 9.381 10.779 9.464 L 11.164 9.85 C 11.247 9.933 11.255 10.065 11.182 10.157 L 10.984 10.407 C 11.068 10.557 11.134 10.717 11.178 10.884 L 11.499 10.922 C 11.616 10.936 11.704 11.034 11.704 11.152 L 11.704 11.698 C 11.704 11.815 11.616 11.914 11.499 11.927 L 11.173 11.965 C 11.128 12.134 11.059 12.296 10.971 12.448 L 11.183 12.716 C 11.256 12.808 11.248 12.94 11.165 13.023 L 10.779 13.41 C 10.696 13.492 10.564 13.5 10.472 13.427 L 10.2 13.212 C 10.045 13.299 9.881 13.366 9.709 13.41 L 9.668 13.759 C 9.655 13.876 9.556 13.964 9.439 13.964 L 8.893 13.964 C 8.775 13.964 8.677 13.876 8.663 13.759 L 8.621 13.398 C 8.461 13.352 8.307 13.287 8.162 13.204 L 7.882 13.426 C 7.789 13.499 7.657 13.492 7.574 13.409 L 7.188 13.023 C 7.106 12.939 7.098 12.808 7.171 12.715 L 7.395 12.432 C 7.316 12.293 7.254 12.145 7.209 11.991 Z M 8.285 11.417 C 8.285 11.915 8.69 12.32 9.188 12.32 C 9.686 12.32 10.091 11.915 10.091 11.417 C 10.091 10.919 9.686 10.514 9.188 10.514 C 8.69 10.514 8.285 10.919 8.285 11.417 Z" style="fill: rgb(102, 56, 197);"/>
</svg>